<svg xmlns="http://www.w3.org/2000/svg" width="629.333" height="445.333" version="1.0" viewBox="0 0 472 334"><path d="M72.5 2.5C57.4 4.9 49 8.9 41.7 17c-9.8 10.9-11.2 19.8-10.2 68.1.8 39.9.4 44.5-4.3 53.3-4.1 7.6-8.5 9.8-23.4 12.1l-3.8.6V184h4.3c12.4 0 22 6.7 25.4 17.5 1.6 5.5 1.8 9.4 1.5 45.2-.4 51.8.8 59.6 10.8 70.6 9.7 10.6 22.7 14.6 50.3 15.4l18.7.6v-31l-10.1-.8c-13.3-.9-18.9-2.6-22.7-6.9-4.9-5.6-5.6-11-4.6-35.5.5-11.9.9-30.6.9-41.6v-20l-3-5.8c-3.4-6.9-12.1-15.3-19.1-18.7-2.7-1.3-7.8-3.1-11.4-4.1-3.6-.9-5.8-1.9-5-2.2.8-.2 4.8-1.4 8.8-2.6 13.8-4.2 26.1-15.7 29.3-27.4 1.1-4.1.9-22-.7-66.7-.8-21 .3-26.8 6.1-31.8 4.4-3.9 8.5-5.1 21.3-5.9l10.2-.6V1l-15.2.1c-8.4.1-18.9.7-23.3 1.4M361 16.2v15.5l10.3.6c15.4 1 21 3.4 24.8 10.8 2.8 5.6 3.3 14.5 1.9 40-.6 12.9-1.2 29.7-1.3 37.4-.2 13.8-.2 14.1 3 20.7 4.3 9.1 11.4 16 20.6 20.3 4 1.8 9 3.6 11.2 4 6.3 1.2 6.3 1.8.1 3.2-14.4 3.2-25.8 11.9-31.8 24-3.2 6.6-3.3 7.1-3.2 18.8 0 6.6.6 24.4 1.4 39.5 1.4 29.9.9 35.8-3.3 42.2-3.4 5.1-8.3 6.9-21.8 8.1l-11.9 1.1v30.9l18.3-.6c20.1-.6 28.6-2.1 38.2-6.6 11.4-5.3 17.6-13 21.2-26.2 1.8-7 2.2-26.8 1.3-66.9-.5-21.6.3-28.8 4.1-36.1 3.8-7.5 13.4-12.9 23.1-12.9h3.8v-16.5c0-18.6.9-16.8-8.9-17.9-6.2-.6-13.1-4.6-16.3-9.2-5.3-7.5-6.3-14.4-5.8-38.4.8-37.5.5-60.1-.9-66.5C436.3 23 429 13.1 419 8.2c-9.7-4.7-19.3-6.4-39.2-6.9L361 .7z"/>

 <style>
        path { fill: #000; }
        @media (prefers-color-scheme: dark) {
            path { fill: #FFF; }
        }
    </style></svg>